<?xml version="1.0" standalone="no"?>
<!DOCTYPE svg PUBLIC "-//W3C//DTD SVG 20010904//EN"
 "http://www.w3.org/TR/2001/REC-SVG-20010904/DTD/svg10.dtd">
<svg version="1.0" xmlns="http://www.w3.org/2000/svg"
 width="951.000000pt" height="1280.000000pt" viewBox="0 0 951.000000 1280.000000"
 preserveAspectRatio="xMidYMid meet">

<g transform="translate(0.000000,1280.000000) scale(0.100000,-0.100000)"
fill="#000000" stroke="none">
<path d="M4475 12525 c-742 -51 -1418 -189 -2340 -479 -387 -121 -1066 -360
-1116 -391 -13 -8 -23 -120 -62 -700 -58 -843 -82 -1231 -102 -1655 -75 -1598
-8 -2899 201 -3914 197 -955 505 -1740 968 -2469 369 -581 886 -1140 1461
-1580 368 -282 712 -499 1121 -709 l230 -118 163 86 c556 290 1069 639 1499
1018 272 240 659 657 873 941 249 330 520 796 713 1228 390 870 605 1813 705
3087 34 431 43 674 43 1225 0 866 -28 1408 -162 3090 -38 475 -37 472 -58 478
-9 3 -128 46 -264 95 -1245 457 -2236 702 -3083 761 -253 18 -580 20 -790 6z
m465 -625 c41 -38 70 -70 64 -70 -6 0 -38 16 -70 35 -82 49 -94 47 -94 -16 0
-83 -18 -135 -66 -188 -24 -27 -44 -51 -44 -53 0 -2 46 -3 103 -3 109 0 179
-21 185 -57 3 -15 -1 -15 -48 3 -62 23 -159 25 -243 3 -33 -8 -70 -13 -81 -10
-29 7 -126 132 -126 161 0 16 13 34 36 52 20 15 86 70 146 121 79 67 116 92
136 92 20 0 47 -19 102 -70z m-116 -406 c9 -3 16 -17 16 -30 0 -19 8 -25 43
-35 97 -26 134 -41 181 -70 26 -17 46 -32 44 -35 -3 -2 -34 9 -70 26 -97 45
-195 63 -271 50 -64 -12 -122 -37 -173 -76 -60 -46 -99 -19 -71 49 23 55 99
97 207 117 60 10 76 11 94 4z m144 -169 c32 -10 52 -21 52 -30 0 -26 -92 -83
-220 -136 -69 -28 -134 -58 -145 -65 -11 -8 -27 -14 -37 -14 -16 0 -18 10 -18
70 0 83 15 119 63 149 67 41 211 53 305 26z m101 -184 c25 -16 -4 -38 -148
-110 -75 -37 -184 -93 -243 -125 l-108 -57 0 36 c0 58 20 123 47 149 15 15 50
30 95 41 65 16 71 17 80 1 13 -23 42 -20 102 10 43 22 140 61 156 63 3 0 11
-3 19 -8z m25 -205 c-3 -8 -22 -25 -42 -39 -40 -26 -475 -247 -487 -247 -14 0
1 118 19 145 19 29 126 83 183 92 28 5 33 3 33 -15 0 -11 5 -24 10 -27 6 -4
63 18 128 49 118 56 166 69 156 42z m-614 -135 c0 -26 -7 -100 -16 -165 -18
-137 3 -112 -199 -246 -77 -52 -214 -143 -305 -203 -91 -60 -166 -111 -168
-112 -2 -2 -86 -229 -173 -469 -21 -60 -39 -119 -39 -131 0 -12 21 -42 50 -70
l50 -49 82 2 c46 2 90 5 98 7 9 3 53 74 99 158 46 84 88 160 95 168 9 14 248
79 287 79 7 0 9 -11 5 -33 -3 -18 -15 -104 -26 -192 -11 -88 -23 -176 -26
-196 l-6 -36 88 13 c115 17 335 34 446 34 l86 0 23 68 c54 167 132 307 210
376 40 37 43 38 56 21 7 -11 13 -24 13 -30 0 -6 9 -99 20 -206 11 -107 20
-203 20 -214 0 -33 13 -42 68 -50 l52 -7 -6 59 c-3 32 -17 132 -30 222 -13 90
-22 166 -19 169 3 3 68 -10 146 -29 l141 -34 91 -167 c102 -187 84 -172 216
-182 l65 -4 59 57 60 58 -36 99 c-104 285 -166 452 -178 481 -11 26 -64 65
-260 195 -443 292 -407 266 -413 307 -3 20 -8 77 -12 126 -3 50 -8 108 -9 129
-4 42 3 65 14 47 4 -6 33 -12 65 -13 43 -2 61 -7 71 -21 7 -10 30 -20 51 -24
50 -7 212 -60 241 -79 12 -8 29 -14 37 -14 7 0 28 -13 46 -30 18 -16 36 -30
41 -30 5 0 9 -4 9 -9 0 -5 24 -17 52 -27 29 -9 61 -28 71 -41 10 -12 24 -23
31 -23 7 0 24 -8 37 -19 36 -28 98 -61 114 -61 8 0 15 -9 15 -19 0 -10 7 -21
15 -25 8 -3 12 -12 9 -20 -3 -8 -1 -17 5 -21 6 -3 11 -1 11 4 0 21 18 11 24
-14 4 -17 13 -25 29 -25 24 0 62 -20 39 -20 -20 0 5 -40 26 -40 19 0 82 -61
82 -79 0 -6 5 -11 10 -11 17 0 90 -77 90 -94 0 -10 9 -16 25 -16 20 0 25 -5
25 -26 0 -14 4 -23 9 -20 5 4 12 -7 16 -24 6 -29 25 -52 25 -31 0 21 18 11 24
-12 7 -31 72 -122 115 -163 21 -21 39 -51 47 -81 7 -26 13 -40 13 -30 1 9 5
17 10 17 10 0 61 -100 61 -121 0 -12 2 -12 9 0 7 11 11 4 17 -25 4 -21 7 -45
6 -51 -2 -7 5 -13 15 -13 18 0 57 -69 66 -115 2 -11 9 -19 16 -17 7 1 10 -1 8
-5 -3 -5 1 -24 9 -43 11 -26 17 -31 23 -21 6 9 13 -4 22 -43 7 -31 17 -56 24
-56 6 0 18 -18 25 -40 7 -22 17 -40 21 -40 5 0 16 -26 25 -57 9 -32 27 -74 41
-94 13 -20 33 -71 43 -114 10 -42 25 -83 32 -92 7 -9 14 -35 14 -57 2 -58 11
-83 34 -89 26 -7 26 -27 0 -34 -31 -8 -24 -30 8 -28 21 1 28 -3 29 -17 1 -9
-2 -20 -8 -23 -5 -4 -6 2 -2 12 6 15 4 16 -9 6 -8 -7 -17 -12 -19 -10 -2 1 2
-4 10 -10 8 -7 20 -13 27 -13 7 0 16 -9 19 -21 4 -12 12 -18 21 -15 7 3 13 1
11 -4 -1 -5 13 -21 31 -37 l33 -28 -11 -99 c-6 -55 -8 -109 -4 -120 4 -17 3
-18 -5 -6 -8 12 -11 7 -11 -21 0 -20 3 -39 8 -43 4 -4 8 -17 9 -29 0 -12 9
-47 18 -77 9 -30 21 -71 26 -90 9 -33 24 -189 36 -382 3 -52 9 -88 16 -88 7 0
8 -38 4 -120 -6 -98 -4 -120 7 -120 11 0 14 -64 15 -360 1 -238 -2 -360 -9
-360 -6 0 -10 -32 -10 -80 0 -57 -4 -80 -12 -81 -7 -1 -2 -5 12 -9 25 -8 25
-8 -5 -10 -29 -1 -29 -2 10 -15 64 -21 30 -17 -120 14 -77 16 -176 34 -221 41
-45 6 -87 16 -94 20 -10 6 -6 33 20 127 110 397 199 884 225 1228 l7 90 -108
86 c-165 129 -218 169 -349 256 -670 448 -1436 661 -2200 614 -641 -40 -1255
-251 -1805 -621 -117 -79 -182 -127 -353 -260 l-97 -75 5 -45 c57 -535 128
-924 242 -1309 13 -45 23 -85 21 -86 -2 -2 -44 -11 -93 -20 -50 -9 -139 -27
-200 -40 -138 -29 -195 -38 -195 -31 0 3 15 10 33 16 l32 10 -38 -5 c-42 -4
-67 2 -67 17 0 6 6 5 15 -2 10 -9 22 -9 42 -2 15 6 21 11 12 11 -21 1 -26 42
-40 331 -14 282 -14 279 -1 490 19 304 33 453 47 505 7 28 16 93 20 145 4 52
12 106 18 120 6 14 11 49 12 79 1 39 6 57 19 66 13 10 16 21 12 42 -5 21 -1
34 14 50 25 27 26 43 3 44 -17 1 -17 2 0 6 13 4 17 15 17 56 0 29 -5 71 -10
95 -11 47 -8 53 43 87 15 10 26 23 24 29 -2 6 0 19 5 30 8 15 12 16 20 5 8
-11 9 -10 4 4 -3 10 -1 28 5 39 8 15 8 19 0 14 -15 -10 -14 0 5 35 8 17 13 37
10 44 -5 13 13 74 24 85 3 3 12 29 19 59 8 30 22 68 31 85 10 17 21 46 25 64
4 17 10 32 14 32 4 0 18 31 30 70 13 38 27 68 31 65 4 -2 12 20 19 50 9 40 17
55 29 55 13 0 23 21 41 91 16 60 27 86 32 77 11 -15 25 1 36 41 3 13 13 32 22
43 8 10 23 37 32 60 9 24 23 43 30 43 9 0 14 11 14 30 0 19 10 40 28 57 15 15
27 33 27 41 0 18 44 59 54 50 4 -5 6 1 5 13 -2 11 8 34 24 53 15 18 30 43 33
56 3 14 11 22 19 19 15 -6 47 35 39 48 -9 13 16 38 38 38 12 0 24 12 34 35 8
20 21 38 29 42 8 3 15 14 15 24 0 10 6 19 13 19 8 0 22 18 32 40 10 22 25 40
34 40 9 0 29 18 45 40 20 27 32 36 37 28 5 -8 10 -2 14 15 6 21 12 26 25 22
14 -5 21 2 31 30 8 20 20 35 29 35 20 0 61 29 42 30 -21 0 -3 20 19 20 11 0
23 10 29 24 10 26 38 46 56 39 6 -2 18 4 27 14 15 17 17 22 17 41 0 5 19 14
42 21 78 24 93 32 79 40 -9 6 0 13 28 25 23 8 41 19 41 24 0 11 61 47 82 48 9
1 28 11 43 22 14 12 33 18 41 15 9 -3 27 3 42 14 15 10 43 25 62 33 19 7 44
20 55 27 11 7 34 13 52 13 18 0 33 3 33 8 0 4 15 13 33 21 17 8 40 21 50 29
16 15 18 14 24 -6 7 -28 19 -28 27 1 5 20 10 22 51 19 l45 -4 0 -47z m628 -38
c-4 -21 -141 -91 -365 -187 -166 -72 -200 -78 -195 -36 8 60 48 87 214 145 64
22 73 23 88 10 25 -22 36 -20 145 34 114 56 118 57 113 34z m26 -196 c0 -26
-5 -52 -10 -57 -11 -11 -225 -2 -246 11 -18 11 -10 16 94 60 60 25 105 38 128
36 35 -2 35 -2 34 -50z m54 -135 c53 -21 188 -98 197 -112 3 -4 -44 12 -103
36 -72 29 -136 48 -193 55 -82 11 -297 7 -330 -6 -9 -3 -24 -26 -34 -50 -34
-90 -172 -194 -335 -254 -19 -7 -30 -15 -24 -17 12 -5 149 30 314 80 140 43
180 44 301 7 173 -52 653 -221 709 -249 49 -24 59 -34 90 -97 67 -132 161
-338 156 -342 -5 -5 -61 89 -154 257 -67 123 -69 125 -127 154 -123 60 -768
266 -833 266 -24 0 -148 -37 -308 -91 -148 -50 -325 -109 -394 -131 -69 -22
-138 -49 -153 -60 -20 -14 -54 -72 -112 -192 -45 -94 -88 -187 -94 -208 -15
-46 -35 -53 -76 -28 -61 38 -61 41 85 350 133 283 119 265 272 363 316 201
431 265 493 276 100 18 121 19 365 17 211 -3 240 -5 288 -24z m-185 -413 c68
-29 97 -46 95 -57 -2 -8 -55 -46 -118 -84 -104 -63 -119 -69 -157 -65 -40 4
-150 66 -218 122 -29 24 -29 25 -10 37 11 7 63 32 115 56 118 53 153 52 293
-9z m128 -1509 c368 -37 690 -126 1049 -290 138 -62 199 -99 100 -59 -347 138
-697 227 -1045 265 -214 24 -574 24 -780 0 -366 -43 -736 -138 -1047 -270 -62
-26 -43 -9 30 28 332 167 691 273 1082 321 130 16 473 19 611 5z m-2777 -61
c-9 -11 -22 -19 -28 -19 -6 0 -3 7 8 15 10 7 15 18 11 24 -4 7 0 8 10 5 14 -6
14 -8 -1 -25z m2347 -115 c24 -26 24 -26 24 -252 l0 -227 -122 -3 -123 -3 0
141 0 140 -180 0 -180 0 0 -260 0 -259 268 -3 c249 -3 269 -4 294 -23 15 -11
32 -33 38 -49 6 -18 10 -180 10 -438 0 -343 -2 -414 -15 -438 -31 -61 -26 -60
-416 -60 -344 0 -357 1 -382 21 -15 11 -31 38 -38 61 -11 43 -11 1509 0 1527
8 13 234 75 364 101 145 29 287 48 368 49 58 1 68 -2 90 -25z m507 15 c125
-13 345 -57 495 -99 l117 -32 0 -273 c0 -324 3 -314 -123 -380 -42 -22 -77
-43 -77 -47 0 -3 21 -14 48 -22 67 -23 109 -51 132 -88 19 -31 20 -51 20 -381
0 -362 -1 -375 -44 -409 -19 -16 -55 -18 -379 -18 l-359 0 -34 34 -34 34 0
361 0 361 35 39 c21 23 59 49 90 62 30 13 55 25 55 28 0 3 -24 19 -53 34 -30
15 -69 44 -88 63 l-34 35 -3 323 -3 324 27 31 c30 36 51 38 212 20z m2189
-131 c-3 -8 -6 -5 -6 6 -1 11 2 17 5 13 3 -3 4 -12 1 -19z m-2947 -2078 c0
-64 -3 -80 -15 -80 -8 0 -15 -4 -15 -9 0 -6 -31 -13 -70 -17 l-70 -7 0 -263
c0 -221 -2 -264 -14 -264 -8 0 -16 -5 -18 -11 -2 -6 -41 -13 -91 -16 l-87 -6
0 278 0 277 -85 -7 -85 -7 0 79 c0 76 1 78 28 90 15 7 129 19 257 26 127 8
238 15 248 16 15 1 17 -9 17 -79z m1411 -101 l132 -161 126 124 c140 137 156
148 194 141 l27 -5 0 -352 0 -351 -25 -12 c-17 -8 -45 -8 -92 -2 -38 4 -74 8
-80 9 -9 0 -13 40 -15 151 l-3 151 -69 -61 c-38 -34 -77 -61 -86 -61 -9 0 -40
27 -68 61 -29 34 -52 57 -53 52 0 -4 0 -59 0 -121 0 -97 -3 -114 -17 -119 -9
-4 -20 -11 -23 -16 -4 -5 -42 -6 -93 -2 l-86 7 0 358 0 359 23 4 c72 14 69 16
208 -154z m-2039 -191 c2 -183 2 -343 0 -355 -2 -13 -10 -23 -18 -23 -8 0 -14
-4 -14 -9 0 -5 -26 -12 -57 -16 -32 -3 -73 -8 -90 -11 l-33 -5 0 161 c0 88 -4
160 -9 160 -5 0 -75 -74 -155 -164 -156 -174 -173 -189 -224 -200 l-32 -8 0
354 0 353 28 12 c26 12 139 33 174 33 16 0 18 -16 20 -156 l3 -157 148 164
c155 172 185 197 229 198 l27 1 3 -332z m2899 232 c96 -16 189 -32 207 -36
l32 -6 0 -80 c0 -67 -3 -79 -15 -74 -8 3 -18 -1 -22 -9 -7 -12 -23 -11 -108 6
-55 10 -103 19 -107 19 -5 0 -8 -17 -8 -39 l0 -38 108 -18 c59 -10 113 -23
120 -28 9 -7 12 -31 10 -79 -2 -57 -5 -68 -20 -68 -10 0 -18 -4 -18 -10 0 -12
-50 -13 -82 -1 -13 4 -44 11 -70 15 l-48 7 0 -50 c0 -28 1 -51 3 -52 1 0 61
-10 132 -22 l130 -23 3 -77 c3 -71 1 -77 -17 -77 -11 0 -21 -5 -23 -11 -3 -9
-293 31 -415 57 l-23 4 0 348 0 347 23 11 c31 16 17 17 208 -16z m-3671 -281
l0 -271 35 4 35 4 0 -112 0 -113 -30 -14 c-16 -8 -49 -18 -72 -22 -24 -3 -51
-9 -60 -11 -14 -4 -18 1 -18 23 0 56 -3 56 -186 19 -186 -39 -393 -84 -524
-115 -47 -12 -88 -21 -92 -21 -5 0 -8 154 -8 343 l0 342 28 12 c22 10 169 53
179 53 2 0 3 -117 3 -259 0 -143 3 -262 8 -264 4 -2 35 3 70 11 l62 14 0 263
0 263 28 10 c35 14 145 42 166 42 14 0 16 -30 18 -262 l3 -263 30 3 c17 2 47
8 68 13 l37 10 0 263 0 263 38 12 c45 14 117 28 155 30 l27 1 0 -271z m1917
198 c15 -15 19 -41 23 -165 l5 -147 63 -3 62 -3 0 161 c0 153 1 160 20 160 11
0 20 5 20 10 0 6 35 10 85 10 l85 0 0 -245 c0 -211 -2 -245 -15 -245 -8 0 -15
-4 -15 -10 0 -6 -37 -10 -90 -10 -73 0 -90 3 -90 15 0 8 -2 15 -4 15 -2 0 -20
-7 -39 -15 -51 -21 -215 -21 -245 1 -43 30 -52 65 -52 194 0 113 -1 122 -20
127 -18 5 -20 14 -20 79 0 67 2 74 19 74 11 0 23 5 27 11 11 19 160 7 181 -14z
m2234 -12 l66 -17 6 -97 c7 -140 35 -188 125 -215 l22 -7 0 125 c0 119 1 126
20 126 11 0 20 5 20 10 0 12 29 7 118 -22 l62 -20 0 -336 0 -337 -29 -13 c-22
-10 -40 -10 -68 -3 -21 5 -57 15 -80 21 l-43 11 0 122 0 123 -69 17 c-121 31
-203 96 -251 199 -24 51 -32 88 -41 176 -12 123 -9 142 21 142 11 0 20 5 20
11 0 6 8 8 18 5 9 -3 47 -12 83 -21z m-3885 -1047 c70 -116 360 -485 423 -538
3 -3 32 -33 64 -66 l58 -61 -32 -184 c-36 -209 -42 -330 -19 -371 67 -121 171
-312 193 -354 74 -142 164 -324 159 -324 -3 0 2 -8 10 -17 27 -32 31 -43 12
-36 -13 5 -16 3 -11 -10 3 -9 2 -19 -3 -22 -5 -3 -7 9 -5 26 3 18 2 29 -2 26
-3 -4 -21 0 -40 8 -18 8 -40 12 -48 9 -8 -3 -25 5 -37 19 -13 14 -48 32 -79
41 -30 9 -70 30 -88 46 -34 32 -98 63 -110 55 -4 -2 -15 12 -25 32 -12 25 -22
34 -35 30 -12 -3 -29 8 -51 34 -18 21 -41 41 -51 44 -18 6 -66 44 -116 93 -13
12 -29 22 -36 22 -7 0 -18 14 -24 31 -7 17 -16 28 -21 25 -10 -6 -42 29 -42
45 0 8 -5 8 -15 -1 -12 -10 -17 -7 -27 16 -12 30 -54 74 -94 101 -13 8 -24 21
-24 28 0 6 -9 20 -21 31 -11 10 -27 33 -34 51 -8 19 -21 36 -30 39 -28 11 -75
58 -75 76 0 9 -5 20 -10 23 -6 4 -8 10 -5 15 8 13 -13 50 -26 47 -6 -1 -17 14
-24 33 -8 19 -14 31 -14 26 -1 -5 -12 1 -26 14 -14 13 -23 30 -20 38 2 7 -6
24 -20 36 -14 13 -25 28 -25 35 0 6 -6 11 -14 11 -7 0 -23 27 -36 63 -12 34
-31 74 -42 89 -11 16 -17 32 -13 37 3 5 -7 12 -22 14 -16 2 -6 5 24 6 47 1 52
3 61 30 6 16 8 32 5 34 -10 10 38 147 82 231 42 82 158 261 195 299 11 12 40
21 86 26 38 5 72 9 76 10 4 0 24 -27 44 -61z m3272 14 c31 -37 141 -204 179
-273 36 -64 77 -182 90 -254 7 -41 12 -50 33 -56 21 -6 22 -7 5 -9 -11 -2 -2
-6 20 -10 l40 -7 -40 -2 c-33 -2 -37 -4 -20 -12 18 -8 17 -9 -6 -6 -18 3 -25
-1 -25 -12 -1 -50 -5 -71 -16 -71 -16 0 -48 -55 -48 -83 -1 -14 -13 -30 -33
-43 -19 -11 -31 -27 -29 -37 1 -9 -9 -23 -22 -32 -14 -9 -28 -26 -32 -38 -18
-58 -36 -90 -44 -78 -5 9 -11 3 -18 -18 -6 -17 -17 -30 -24 -29 -6 2 -17 -12
-24 -31 -6 -21 -13 -29 -16 -20 -3 8 -8 -5 -11 -29 -6 -34 -11 -42 -28 -42
-12 0 -23 -8 -26 -20 -3 -11 -11 -20 -18 -20 -7 0 -20 -11 -29 -25 -9 -13 -30
-32 -47 -41 -23 -11 -30 -21 -26 -35 4 -14 0 -19 -13 -19 -12 0 -25 -14 -36
-40 -10 -22 -24 -40 -30 -40 -7 0 -17 -6 -21 -13 -4 -8 -16 -16 -26 -20 -10
-4 -25 -23 -33 -43 -12 -28 -20 -35 -35 -31 -10 3 -19 1 -19 -4 0 -17 -40 -49
-60 -49 -11 0 -20 -6 -20 -14 0 -8 -8 -17 -19 -21 -10 -3 -26 -14 -36 -25 -10
-11 -24 -20 -31 -20 -7 0 -24 -10 -37 -22 -46 -45 -99 -88 -107 -88 -5 0 -10
-4 -12 -8 -1 -4 -48 -30 -103 -57 -55 -27 -108 -55 -117 -63 -16 -14 -18 -13
-18 4 0 16 -2 16 -10 4 -8 -13 -11 -12 -25 5 -16 20 -16 20 -10 -3 7 -23 -18
-43 -33 -27 -4 4 -1 10 6 12 6 3 12 9 12 15 0 20 43 97 51 92 5 -3 6 1 4 9 -5
12 68 158 214 427 35 63 67 120 71 125 4 6 13 29 20 51 10 35 10 60 -3 140 -9
55 -25 163 -37 242 l-21 143 114 119 c128 133 288 331 395 491 l71 106 73 -9
c62 -7 77 -13 96 -36z m-2453 -613 c143 -116 347 -244 529 -335 93 -46 176
-84 184 -84 21 0 270 122 362 178 211 127 381 255 540 406 114 108 109 94 -10
-28 -223 -229 -472 -413 -747 -554 l-143 -73 -92 45 c-201 98 -382 213 -558
356 -118 96 -265 234 -322 303 -34 41 -20 31 62 -45 58 -53 146 -130 195 -169z
m1559 -441 c14 -86 23 -165 19 -175 -3 -10 -60 -112 -126 -228 -66 -115 -128
-223 -137 -240 -143 -253 -585 -1022 -591 -1029 -5 -6 -9 294 -9 700 l0 709
198 96 c192 95 379 210 537 332 l70 54 7 -31 c4 -17 18 -102 32 -188z m-177
-915 c1 -19 -1 -23 -9 -12 -6 10 -7 3 -4 -21 6 -31 5 -32 -4 -10 -8 17 -8 32
-1 47 13 29 16 29 18 -4z"/>
<path d="M4160 10750 c0 -5 4 -10 9 -10 6 0 13 5 16 10 3 6 -1 10 -9 10 -9 0
-16 -4 -16 -10z"/>
<path d="M5575 10710 c3 -5 10 -10 16 -10 5 0 9 5 9 10 0 6 -7 10 -16 10 -8 0
-12 -4 -9 -10z"/>
<path d="M4642 9188 c-8 -8 -12 -56 -12 -151 l0 -138 33 3 32 3 3 103 c2 72 6
102 15 102 7 0 22 3 35 6 22 6 22 5 22 -100 l0 -107 33 3 c17 2 31 6 30 11 -2
4 -3 68 -3 142 l0 135 -88 0 c-55 0 -92 -4 -100 -12z"/>
<path d="M4900 9071 c0 -71 -3 -136 -6 -145 -5 -13 1 -16 31 -16 33 0 37 2 32
21 -9 35 3 49 40 49 49 0 71 15 84 58 15 50 -2 114 -38 141 -19 16 -40 21 -84
21 l-59 0 0 -129z m118 17 c3 -25 0 -28 -27 -28 -21 0 -32 6 -36 20 -9 28 3
42 33 38 21 -2 28 -9 30 -30z"/>
<path d="M5140 9069 c0 -68 -3 -134 -6 -146 -6 -20 -1 -22 71 -28 42 -4 78 -6
80 -3 2 2 2 21 -2 41 -4 29 -10 37 -27 37 -32 0 -66 11 -66 21 0 5 20 9 45 9
45 0 45 0 45 34 0 40 -5 45 -49 48 -45 3 -38 16 12 20 42 3 42 3 39 38 -2 19
-5 36 -7 38 -1 1 -32 5 -69 9 l-66 6 0 -124z"/>
<path d="M4373 9173 c-28 -4 -33 -9 -34 -31 -5 -163 -6 -263 0 -265 3 -2 39 1
79 6 69 9 72 10 72 35 0 43 -13 54 -55 50 -57 -5 -57 19 -1 27 41 7 46 10 46
34 0 41 -14 54 -49 49 -18 -3 -34 -1 -37 3 -2 4 16 11 41 14 44 7 45 8 45 46
0 39 0 39 -37 37 -21 0 -53 -3 -70 -5z"/>
<path d="M5376 9060 c-23 -58 -45 -100 -52 -100 -10 0 -14 -15 -14 -55 0 -51
2 -55 24 -55 13 0 26 5 28 11 3 8 24 10 70 5 54 -6 67 -11 71 -27 4 -15 12
-20 29 -17 21 3 23 8 22 51 -1 31 -6 52 -17 60 -9 6 -34 59 -55 117 -22 58
-46 106 -53 108 -9 1 -28 -33 -53 -98z m68 -72 c10 -38 7 -46 -14 -41 -21 5
-25 19 -14 47 9 23 21 20 28 -6z"/>
<path d="M4124 9124 c-64 -31 -105 -165 -70 -232 22 -42 50 -55 104 -49 90 10
143 102 120 209 -16 80 -80 109 -154 72z m90 -96 c40 -57 -49 -131 -98 -82
-24 23 -19 52 13 84 32 32 62 31 85 -2z"/>
<path d="M5588 8993 c-2 -76 -1 -141 2 -144 3 -4 17 -9 33 -13 l27 -6 0 100
c0 92 2 100 19 100 48 0 51 -6 51 -116 0 -76 3 -104 13 -104 6 0 22 -3 35 -7
l24 -6 -4 141 c-2 77 -6 143 -10 147 -8 8 -147 45 -170 45 -15 0 -17 -16 -20
-137z"/>
<path d="M3953 9090 c-19 -8 -23 -17 -23 -55 0 -40 -3 -47 -26 -55 -39 -15
-44 -13 -44 23 0 49 -13 63 -44 49 l-26 -12 0 -140 c0 -80 4 -140 9 -140 5 0
21 4 35 10 24 9 26 15 26 64 0 47 3 54 23 60 43 11 47 8 47 -44 0 -52 1 -53
38 -44 22 6 22 9 22 150 0 79 -3 144 -7 143 -5 0 -18 -4 -30 -9z"/>
<path d="M5850 8926 c0 -80 3 -146 8 -146 4 0 18 -3 31 -7 22 -6 23 -4 16 26
l-7 31 55 -6 c52 -6 56 -5 73 21 16 24 16 34 6 83 -14 67 -46 104 -105 121
-23 7 -50 15 -59 17 -17 5 -18 -6 -18 -140z m110 24 c33 -33 25 -46 -25 -40
-26 3 -27 4 -30 35 -4 32 26 34 55 5z"/>
<path d="M3698 9018 c-25 -9 -28 -14 -28 -57 0 -41 -3 -49 -25 -59 -45 -21
-55 -16 -55 28 0 32 -4 40 -18 40 -37 0 -42 -20 -42 -161 l0 -136 25 5 c34 6
39 17 36 73 -2 44 -1 47 30 58 48 16 49 15 49 -40 0 -48 1 -50 23 -44 12 4 26
10 30 14 4 4 6 71 5 148 l-3 140 -27 -9z"/>
<path d="M6089 8860 c-1 -71 -2 -135 -3 -142 -2 -24 22 -17 74 22 29 22 57 40
62 40 4 0 8 -28 8 -63 0 -60 1 -63 30 -74 l30 -11 0 144 c0 166 -1 167 -81
109 -27 -19 -51 -35 -54 -35 -3 0 -5 24 -5 54 0 56 -16 86 -46 86 -11 0 -14
-25 -15 -130z"/>
<path d="M3372 8888 c-5 -7 -29 -67 -51 -133 -23 -66 -46 -130 -51 -143 -6
-13 -10 -32 -10 -43 0 -18 2 -19 29 -4 16 8 32 23 36 33 7 24 77 56 103 48 27
-9 72 3 72 19 0 13 -107 235 -113 235 -3 0 -9 -6 -15 -12z m18 -153 c0 -8 -4
-15 -10 -15 -5 0 -10 7 -10 15 0 8 5 15 10 15 6 0 10 -7 10 -15z"/>
<path d="M6373 8859 c-31 -11 -41 -71 -21 -125 14 -39 13 -44 -3 -65 -10 -13
-19 -31 -19 -40 0 -23 79 -55 80 -31 0 4 7 15 14 25 22 28 46 11 46 -34 0 -32
5 -41 29 -53 16 -9 30 -14 32 -11 2 2 2 65 -1 141 l-5 138 -30 17 c-58 34 -99
47 -122 38z m72 -91 c27 -12 35 -48 10 -48 -20 0 -57 38 -50 50 8 12 9 12 40
-2z"/>
<path d="M3135 8770 c-78 -45 -75 -37 -75 -186 0 -75 3 -134 8 -132 60 30 62
31 62 67 0 31 5 39 37 56 54 29 83 77 83 137 0 94 -29 108 -115 58z m55 -83
c0 -20 -32 -47 -55 -47 -14 0 -2 50 13 59 28 17 42 13 42 -12z"/>
<path d="M6570 8739 c0 -36 3 -42 30 -52 l30 -11 0 -107 c0 -104 1 -106 25
-117 14 -7 28 -12 30 -12 3 0 5 43 5 96 0 103 -3 98 48 77 8 -4 12 6 12 30 0
38 -23 58 -128 111 l-52 26 0 -41z"/>
<path d="M2972 8671 c-18 -16 -32 -35 -32 -43 0 -8 -6 -23 -14 -34 -14 -19
-15 -19 -29 0 -17 23 -51 14 -74 -20 -15 -24 -15 -26 16 -57 17 -18 31 -38 31
-45 0 -6 -15 -46 -34 -89 -19 -43 -31 -80 -25 -81 20 -7 62 37 83 86 l22 52
23 -24 c23 -24 24 -24 57 -8 19 8 34 22 34 29 0 7 -16 30 -35 52 -19 21 -35
42 -35 46 0 5 14 39 32 77 37 82 29 106 -20 59z"/>
<path d="M6788 8613 c-2 -21 -2 -84 0 -140 3 -95 5 -103 23 -103 11 0 32 6 47
14 15 7 37 17 50 20 21 7 22 5 22 -54 0 -52 4 -65 23 -81 27 -23 51 -25 43 -3
-3 9 -6 72 -6 140 0 142 2 140 -90 104 l-50 -20 0 64 c0 57 -3 65 -25 80 -33
22 -33 21 -37 -21z"/>
<path d="M2682 8480 c-77 -47 -134 -142 -140 -235 -3 -51 -1 -63 17 -79 74
-67 249 141 225 269 -12 65 -44 80 -102 45z m32 -123 c-2 -60 -71 -124 -102
-94 -13 14 -13 20 -2 48 21 50 60 90 84 87 17 -2 21 -9 20 -41z"/>
<path d="M7060 8352 c0 -66 -2 -127 -5 -134 -4 -10 18 -32 62 -65 96 -70 93
-69 93 -33 0 25 -10 41 -47 76 -53 48 -55 67 -3 29 19 -14 35 -25 37 -25 2 0
3 17 3 38 -1 32 -6 41 -41 65 -23 16 -39 31 -36 34 3 3 22 -7 42 -22 19 -15
38 -26 40 -23 2 2 2 21 -2 41 -4 25 -15 44 -37 60 -17 13 -48 36 -68 51 l-38
28 0 -120z"/>
<path d="M2321 8134 c0 -11 3 -14 6 -6 3 7 2 16 -1 19 -3 4 -6 -2 -5 -13z"/>
<path d="M4120 7105 l0 -255 23 -5 c12 -3 92 -4 177 -3 l155 3 3 258 2 257
-180 0 -180 0 0 -255z"/>
<path d="M5220 7937 l0 -193 83 -58 c45 -33 87 -59 93 -59 6 0 48 26 92 58
l82 59 0 193 0 193 -175 0 -175 0 0 -193z"/>
<path d="M5308 7366 l-87 -61 -1 -233 0 -232 173 2 172 3 3 229 c2 209 1 230
-15 242 -10 6 -50 34 -88 62 l-70 49 -87 -61z"/>
<path d="M4097 3073 c-4 -3 -7 -13 -7 -22 1 -13 3 -13 11 2 11 19 8 33 -4 20z"/>
<path d="M4120 3076 c0 -4 7 -14 15 -22 8 -9 15 -11 15 -6 0 5 -7 15 -15 22
-8 7 -15 9 -15 6z"/>
<path d="M5581 3123 c-1 -6 -4 -20 -7 -30 -5 -17 -5 -17 6 0 6 10 9 23 6 30
-3 9 -5 9 -5 0z"/>
</g>
</svg>
